<svg xmlns="http://www.w3.org/2000/svg" version="1.1" xmlns:xlink="http://www.w3.org/1999/xlink" xmlns:svgjs="http://svgjs.dev/svgjs" width="1500" height="1500" viewBox="0 0 1500 1500"><rect width="1500" height="1500" fill="#000000"></rect><g transform="matrix(0.6666666666666666,0,0,0.6666666666666666,250.00001377604167,281.3333333333334)"><svg viewBox="0 0 384 360" data-background-color="#ffffff" preserveAspectRatio="xMidYMid meet" height="1406" width="1500" xmlns="http://www.w3.org/2000/svg" xmlns:xlink="http://www.w3.org/1999/xlink"><g id="tight-bounds" transform="matrix(1,0,0,1,0.000005289999990054639,0)"><svg viewBox="0 0 384 360" height="360" width="384"><g><svg></svg></g><g><svg viewBox="0 0 384 360" height="360" width="384"><g><path transform="translate(-42.61557,-54.61557) scale(4.69231,4.69231)" d="M86.305 42.635v-9.002c0-4.501-4.084-8.184-9.076-8.184h-19.864c-3.239 0-6.039-1.882-7.365-4.613-1.326 2.73-4.126 4.613-7.365 4.613h-19.864c-4.992 0-9.076 3.683-9.076 8.184v9.002c0 3.239-1.882 6.039-4.613 7.365 2.73 1.326 4.613 4.126 4.613 7.365v9.002c0 4.501 4.084 8.184 9.076 8.184h19.864c3.239 0 6.039 1.882 7.365 4.613 1.326-2.73 4.126-4.613 7.365-4.613h19.864c4.992 0 9.076-3.683 9.076-8.184v-9.002c0-3.239 1.882-6.039 4.613-7.365-2.73-1.326-4.613-4.126-4.613-7.365z" fill="#ffffff" fill-rule="nonzero" stroke="none" stroke-width="1" stroke-linecap="butt" stroke-linejoin="miter" stroke-miterlimit="10" stroke-dasharray="" stroke-dashoffset="0" font-family="none" font-weight="none" font-size="none" text-anchor="none" style="mix-blend-mode: normal" data-fill-palette-color="tertiary"></path></g><g transform="matrix(1,0,0,1,76.80000000000001,152.57489367795048)"><svg viewBox="0 0 230.39999999999998 54.850212644099024" height="54.850212644099024" width="230.39999999999998"><g><svg viewBox="0 0 398.9527208322918 94.97674293660192" height="54.850212644099024" width="230.39999999999998"><g><rect width="4.19614985639609" height="82.93475290055832" x="153.37188548794785" y="6.0209950180218" fill="#ffffff" opacity="1" stroke-width="0" stroke="transparent" fill-opacity="1" class="rect-qz-0" data-fill-palette-color="primary" rx="1%" id="qz-0" data-palette-color="#096a2e"></rect></g><g transform="matrix(1,0,0,1,168.5527208322918,12.93222442640166)"><svg viewBox="0 0 230.39999999999995 69.1122940837986" height="69.1122940837986" width="230.39999999999995"><g id="textblocktransform"><svg viewBox="0 0 230.39999999999995 69.1122940837986" height="69.1122940837986" width="230.39999999999995" id="textblock"><g><svg viewBox="0 0 230.39999999999995 46.53029315960911" height="46.53029315960911" width="230.39999999999995"><g transform="matrix(1,0,0,1,0,0)"><svg width="230.39999999999995" viewBox="1.2 -35.6 179.87 36.33" height="46.53029315960911" data-palette-color="#ffffff"><path d="M25.85-35.6L38.99-35.6 36.74 0.24 25.61 0.73 25.71-18.16 20.68-2.93 16.38-2.93 12.52-16.55 12.48-0.73 1.2-0.39 1.68-34.13 14.23-34.62 19.21-18.46 25.85-35.6ZM61.62-34.96L71.14-2.1 59.03-0.54 57.57-6.05 52-6.05 50.78-0.54 38.33-1.76 48.04-34.28 61.62-34.96ZM53.02-13.53L56.69-13.53 54.83-22.02 53.02-13.53ZM94.11-34.62L94.55-25.83 83.37-11.72 93.67-11.72 94.01-1.37 72.24-0.49 71.26-10.06 84-25.68 71.36-24.8 71.26-34.62 94.11-34.62ZM123.14-19.73L123.14-19.73Q123.14-17.6 122.84-15.48L122.84-15.48Q118.67-15.21 114.54-14.61 110.42-14.01 106.29-13.43L106.29-13.43Q106.93-11.67 108.28-10.62 109.64-9.57 111.52-9.57L111.52-9.57Q112.49-9.57 113.65-9.94 114.81-10.3 115.96-10.85 117.11-11.4 118.16-12.04 119.21-12.67 119.96-13.18L119.96-13.18 118.79-2.1Q117.84-1.37 116.73-0.85 115.62-0.34 114.42-0.02 113.22 0.29 112 0.44 110.78 0.59 109.61 0.59L109.61 0.59Q107.19 0.59 105.19-0.07 103.19-0.73 101.57-1.92 99.94-3.1 98.72-4.71 97.5-6.32 96.7-8.23 95.89-10.13 95.48-12.26 95.06-14.38 95.06-16.55L95.06-16.55Q95.06-18.82 95.48-21.09 95.89-23.36 96.73-25.46 97.58-27.56 98.86-29.36 100.14-31.15 101.85-32.5 103.56-33.84 105.72-34.59 107.88-35.35 110.49-35.35L110.49-35.35Q112.66-35.35 114.46-34.75 116.25-34.16 117.66-33.09 119.06-32.03 120.1-30.57 121.14-29.1 121.81-27.36 122.48-25.61 122.81-23.67 123.14-21.73 123.14-19.73ZM113.37-20.46L113.37-21Q113.37-21.68 113.22-22.4 113.08-23.12 112.75-23.71 112.42-24.29 111.88-24.67 111.35-25.05 110.54-25.05L110.54-25.05Q109.56-25.05 108.82-24.52 108.07-24 107.54-23.21 107-22.41 106.66-21.48 106.32-20.56 106.14-19.78L106.14-19.78 113.37-20.46ZM123.96-34.38L150.58-34.42 150.33-24.07 143.06-23.78 142.18-1.12 131.87-0.59 130.95-23.24 123.67-22.85 123.96-34.38ZM181.07-34.38L181.07-34.38Q179.97-25.78 179.19-17.27 178.41-8.76 177.7-0.15L177.7-0.15 167.69 0.59 168.13-3.17Q167.64-2.61 166.99-2.2 166.34-1.78 165.61-1.53 164.88-1.27 164.1-1.16 163.32-1.05 162.61-1.07L162.61-1.07Q160.95-1.1 159.48-1.72 158.02-2.34 156.8-3.38 155.58-4.42 154.6-5.8 153.63-7.18 152.95-8.7 152.28-10.23 151.93-11.82 151.57-13.4 151.57-14.89L151.57-14.89Q151.57-17.09 151.66-19.45 151.75-21.8 151.97-24.17 152.18-26.54 152.54-28.86 152.89-31.18 153.43-33.3L153.43-33.3Q156.41-33.15 159.41-33.03 162.41-32.91 165.39-32.96L165.39-32.96Q164.83-30.83 164.28-28.7 163.73-26.56 163.29-24.4 162.85-22.24 162.59-20.07 162.32-17.9 162.32-15.67L162.32-15.67Q162.32-15.16 162.37-14.21 162.41-13.26 162.62-12.33 162.83-11.4 163.26-10.71 163.68-10.01 164.47-10.01L164.47-10.01Q165.39-10.01 166.13-10.8 166.86-11.6 167.42-12.94 167.98-14.28 168.38-16.04 168.79-17.8 169.07-19.71 169.35-21.63 169.52-23.58 169.69-25.54 169.78-27.26 169.86-28.98 169.9-30.35 169.93-31.71 169.93-32.47L169.93-32.47Q169.93-32.96 169.91-33.42 169.88-33.89 169.84-34.38L169.84-34.38Q171.42-34.33 172.99-34.3 174.55-34.28 176.13-34.28L176.13-34.28Q177.36-34.28 178.59-34.29 179.82-34.3 181.07-34.38Z" opacity="1" transform="matrix(1,0,0,1,0,0)" fill="#000000" class="wordmark-text-0" data-fill-palette-color="quaternary" id="text-0"></path></svg></g></svg></g><g transform="matrix(1,0,0,1,0,57.51497864755699)"><svg viewBox="0 0 230.39999999999995 11.59731543624161" height="11.59731543624161" width="230.39999999999995"><g transform="matrix(1,0,0,1,0,0)"><svg width="230.39999999999995" viewBox="2.4 -35.9 908.7900000000001 45.75" height="11.59731543624161" data-palette-color="#ffffff"><path d="M28-5.95L28-1.7Q24.9 0.4 19.5 0.4L19.5 0.4Q11.9 0.4 7.15-4.28 2.4-8.95 2.4-17L2.4-17Q2.4-24.6 7.23-29.38 12.05-34.15 19.35-34.15L19.35-34.15Q24.6-34.15 27.9-32.35L27.9-32.35 27.9-28.2Q25.7-29.35 23.95-29.85 22.2-30.35 19.35-30.35L19.35-30.35Q13.9-30.35 10.28-26.65 6.65-22.95 6.65-17L6.65-17Q6.65-10.8 10.25-7.1 13.85-3.4 19.8-3.4L19.8-3.4Q24.6-3.4 28-5.95L28-5.95ZM53.45-25.35L53.45 0 49.5 0 49.5-4.4Q47.5 0.3 41.55 0.3L41.55 0.3Q37.8 0.3 35.62-1.93 33.45-4.15 33.45-7.9L33.45-7.9 33.45-25.35 37.4-25.35 37.4-8.9Q37.4-6.15 38.8-4.7 40.2-3.25 42.6-3.25L42.6-3.25Q45.75-3.25 47.62-5.45 49.5-7.65 49.5-11.4L49.5-11.4 49.5-25.35 53.45-25.35ZM64.89-35.35L64.89 0 60.95 0 60.95-35.35 64.89-35.35ZM85.09-4.4L85.09-0.65Q83.44 0.25 81.39 0.25L81.39 0.25Q73.89 0.25 73.89-7.4L73.89-7.4 73.89-22.15 69.84-22.15 69.84-25.35 73.89-25.35 73.89-31.65 77.84-31.65 77.84-25.35 84.84-25.35 84.84-22.15 77.84-22.15 77.84-7.3Q77.84-3.25 81.64-3.25L81.64-3.25Q83.59-3.25 85.09-4.4L85.09-4.4ZM94.99-25.35L94.99 0 91.04 0 91.04-25.35 94.99-25.35ZM94.84-35.15Q95.59-34.4 95.59-33.3 95.59-32.2 94.84-31.48 94.09-30.75 92.99-30.75 91.89-30.75 91.17-31.48 90.44-32.2 90.44-33.3 90.44-34.4 91.17-35.15 91.89-35.9 92.99-35.9 94.09-35.9 94.84-35.15ZM122.84-25.35L113.79 0 108.94 0 100.09-25.35 104.19-25.35 107.69-14.65 111.39-3.1Q111.84-5.25 115.14-14.65L115.14-14.65 118.74-25.35 122.84-25.35ZM135.49-3.05L135.49-3.05Q138.19-3.05 139.79-4.58 141.39-6.1 141.39-8.45L141.39-8.45 141.39-11.7 136.99-11.7Q133.79-11.7 132.19-10.45 130.59-9.2 130.59-7.3 130.59-5.4 131.84-4.23 133.09-3.05 135.49-3.05ZM141.44 0L141.44-3Q139.49 0.25 134.34 0.25L134.34 0.25Q130.79 0.25 128.61-1.85 126.44-3.95 126.44-7.15L126.44-7.15Q126.44-10.8 129.21-12.83 131.99-14.85 136.79-14.85L136.79-14.85 141.39-14.85 141.39-16.15Q141.39-19.15 140.04-20.68 138.69-22.2 135.49-22.2L135.49-22.2Q131.44-22.2 128.29-20.05L128.29-20.05 128.29-24Q131.14-25.75 135.79-25.75L135.79-25.75Q145.34-25.75 145.34-16.05L145.34-16.05 145.34 0 141.44 0ZM165.03-4.4L165.03-0.65Q163.38 0.25 161.33 0.25L161.33 0.25Q153.83 0.25 153.83-7.4L153.83-7.4 153.83-22.15 149.78-22.15 149.78-25.35 153.83-25.35 153.83-31.65 157.78-31.65 157.78-25.35 164.78-25.35 164.78-22.15 157.78-22.15 157.78-7.3Q157.78-3.25 161.58-3.25L161.58-3.25Q163.53-3.25 165.03-4.4L165.03-4.4ZM174.93-25.35L174.93 0 170.98 0 170.98-25.35 174.93-25.35ZM174.78-35.15Q175.53-34.4 175.53-33.3 175.53-32.2 174.78-31.48 174.03-30.75 172.93-30.75 171.83-30.75 171.11-31.48 170.38-32.2 170.38-33.3 170.38-34.4 171.11-35.15 171.83-35.9 172.93-35.9 174.03-35.9 174.78-35.15ZM202.43-17.45L202.43 0 198.48 0 198.48-16.4Q198.48-19.2 197.05-20.68 195.63-22.15 193.33-22.15L193.33-22.15Q190.48-22.15 188.4-19.95 186.33-17.75 186.33-13.85L186.33-13.85 186.33 0 182.43 0 182.43-25.35 186.33-25.35 186.33-20.95Q188.58-25.7 194.33-25.7L194.33-25.7Q198.03-25.7 200.23-23.45 202.43-21.2 202.43-17.45L202.43-17.45ZM229.88-25.35L229.88-2.05Q229.88 3.75 226.68 6.68 223.48 9.6 218.43 9.6L218.43 9.6Q213.83 9.6 210.58 8.05L210.58 8.05 210.58 4.1Q213.78 5.95 218.08 5.95L218.08 5.95Q221.73 5.95 223.83 4 225.93 2.05 225.93-2.1L225.93-2.1 225.93-4.95Q223.43-0.65 218.48-0.65L218.48-0.65Q214.13-0.65 211.05-3.85 207.98-7.05 207.98-12.75L207.98-12.75Q207.98-18.4 210.83-22.05 213.68-25.7 218.28-25.7L218.28-25.7Q223.48-25.7 225.93-21.15L225.93-21.15 225.93-25.35 229.88-25.35ZM212.08-12.85L212.08-12.85Q212.08-8.6 214.18-6.38 216.28-4.15 218.93-4.15L218.93-4.15Q221.68-4.15 223.8-6.28 225.93-8.4 225.93-12.6L225.93-12.6Q225.93-17.45 223.88-19.8 221.83-22.15 219.13-22.15L219.13-22.15Q215.88-22.15 213.98-19.58 212.08-17 212.08-12.85ZM257.62-12.4L257.62-12.4 252.42-12.4 252.42 0 248.37 0 248.37-33.7 257.22-33.7Q263.07-33.7 266.45-30.68 269.82-27.65 269.82-22.85L269.82-22.85Q269.82-18.35 266.47-15.38 263.12-12.4 257.62-12.4ZM257.27-30.25L257.27-30.25 252.42-30.25 252.42-15.85 257.62-15.85Q261.42-15.85 263.57-17.82 265.72-19.8 265.72-22.85L265.72-22.85Q265.72-26.25 263.52-28.25 261.32-30.25 257.27-30.25ZM279.32-13.85L279.32 0 275.37 0 275.42-25.35 279.32-25.35 279.32-20.9Q281.32-25.6 286.22-25.6L286.22-25.6Q287.12-25.6 287.62-25.5L287.62-25.5 287.62-21.6Q286.57-21.95 285.47-21.95L285.47-21.95Q282.82-21.95 281.07-19.5 279.32-17.05 279.32-13.85L279.32-13.85ZM314.02-12.6L314.02-12.6Q314.02-6.95 310.82-3.25 307.62 0.45 302.02 0.45L302.02 0.45Q296.57 0.45 293.39-3.23 290.22-6.9 290.22-12.5L290.22-12.5Q290.22-18.15 293.49-21.93 296.77-25.7 302.02-25.7L302.02-25.7Q307.77-25.7 310.89-22 314.02-18.3 314.02-12.6ZM294.32-12.55L294.32-12.55Q294.32-8.6 296.42-5.83 298.52-3.05 302.02-3.05L302.02-3.05Q305.82-3.05 307.87-5.78 309.92-8.5 309.92-12.55L309.92-12.55Q309.92-16.75 307.97-19.48 306.02-22.2 302.02-22.2L302.02-22.2Q298.42-22.2 296.37-19.4 294.32-16.6 294.32-12.55ZM335.06-6.75L335.06-6.75Q335.06-3.5 332.79-1.6 330.51 0.3 326.56 0.3L326.56 0.3Q321.96 0.3 319.11-1.25L319.11-1.25 319.11-5.1Q322.46-3.1 326.31-3.1L326.31-3.1Q328.61-3.1 329.81-4 331.01-4.9 331.01-6.45L331.01-6.45Q331.01-8.25 329.69-9.25 328.36-10.25 325.26-11.5L325.26-11.5Q322.41-12.6 320.69-14.25 318.96-15.9 318.96-18.7L318.96-18.7Q318.96-21.85 321.34-23.73 323.71-25.6 327.26-25.6L327.26-25.6Q331.21-25.6 333.61-24.5L333.61-24.5 333.61-20.75Q331.31-22.15 327.31-22.15L327.31-22.15Q325.31-22.15 324.14-21.23 322.96-20.3 322.96-18.85L322.96-18.85Q322.96-17.95 323.31-17.28 323.66-16.6 324.69-15.95 325.71-15.3 326.19-15.08 326.66-14.85 328.26-14.15L328.26-14.15Q331.46-12.85 333.26-11.2 335.06-9.55 335.06-6.75ZM344.31-3.85L344.31 9.85 340.41 9.85 340.41-25.35 344.31-25.35 344.31-21.5Q346.96-25.75 352.16-25.75L352.16-25.75Q357.21-25.75 360.09-22.08 362.96-18.4 362.96-12.9L362.96-12.9Q362.96-7.05 359.94-3.33 356.91 0.4 352.06 0.4L352.06 0.4Q347.06 0.4 344.31-3.85L344.31-3.85ZM344.31-12.65L344.31-12.65Q344.31-7.8 346.56-5.5 348.81-3.2 351.56-3.2L351.56-3.2Q354.76-3.2 356.81-5.73 358.86-8.25 358.86-12.9L358.86-12.9Q358.86-17.05 356.86-19.6 354.86-22.15 351.81-22.15 348.76-22.15 346.54-19.93 344.31-17.7 344.31-12.65ZM387.26-5L387.26-1.3Q384.31 0.25 380.06 0.25L380.06 0.25Q374.31 0.25 370.78-3.28 367.26-6.8 367.26-12.6L367.26-12.6Q367.26-18.65 370.41-22.15 373.56-25.65 378.51-25.65L378.51-25.65Q383.26-25.65 386.06-22.6 388.86-19.55 388.86-13.95L388.86-13.95Q388.86-12.35 388.61-11L388.61-11 371.31-11Q371.76-7.25 374.16-5.25 376.56-3.25 380.46-3.25L380.46-3.25Q384.71-3.25 387.26-5L387.26-5ZM378.51-22.2L378.51-22.2Q375.66-22.2 373.66-20.15 371.66-18.1 371.31-14.3L371.31-14.3 384.91-14.3 384.91-15.3Q384.91-18.45 383.21-20.33 381.51-22.2 378.51-22.2ZM398.76-13.85L398.76 0 394.81 0 394.86-25.35 398.76-25.35 398.76-20.9Q400.76-25.6 405.66-25.6L405.66-25.6Q406.56-25.6 407.06-25.5L407.06-25.5 407.06-21.6Q406.01-21.95 404.91-21.95L404.91-21.95Q402.26-21.95 400.51-19.5 398.76-17.05 398.76-13.85L398.76-13.85ZM415.3-25.35L415.3 0 411.35 0 411.35-25.35 415.3-25.35ZM415.15-35.15Q415.9-34.4 415.9-33.3 415.9-32.2 415.15-31.48 414.4-30.75 413.3-30.75 412.2-30.75 411.48-31.48 410.75-32.2 410.75-33.3 410.75-34.4 411.48-35.15 412.2-35.9 413.3-35.9 414.4-35.9 415.15-35.15ZM435.5-4.4L435.5-0.65Q433.85 0.25 431.8 0.25L431.8 0.25Q424.3 0.25 424.3-7.4L424.3-7.4 424.3-22.15 420.25-22.15 420.25-25.35 424.3-25.35 424.3-31.65 428.25-31.65 428.25-25.35 435.25-25.35 435.25-22.15 428.25-22.15 428.25-7.3Q428.25-3.25 432.05-3.25L432.05-3.25Q434-3.25 435.5-4.4L435.5-4.4ZM461.4-25.35L452.25-0.65Q450.3 4.5 447.62 6.6 444.95 8.7 441.5 8.7L441.5 8.7Q440.2 8.7 439.4 8.45L439.4 8.45 439.4 4.9Q440.15 5.1 441.1 5.1L441.1 5.1Q446.15 5.1 448.25-0.65L448.25-0.65 438-25.35 442.45-25.35 445.75-17 450.2-5.5Q450.6-6.8 454.2-17L454.2-17 457.15-25.35 461.4-25.35ZM471.75-5.05L465.3 6.15 461.85 6.15 466.5-5.05 471.75-5.05ZM497.89-12.4L497.89-12.4 492.69-12.4 492.69 0 488.64 0 488.64-33.7 497.49-33.7Q503.34-33.7 506.72-30.68 510.09-27.65 510.09-22.85L510.09-22.85Q510.09-18.35 506.74-15.38 503.39-12.4 497.89-12.4ZM497.54-30.25L497.54-30.25 492.69-30.25 492.69-15.85 497.89-15.85Q501.69-15.85 503.84-17.82 505.99-19.8 505.99-22.85L505.99-22.85Q505.99-26.25 503.79-28.25 501.59-30.25 497.54-30.25ZM519.59-13.85L519.59 0 515.64 0 515.69-25.35 519.59-25.35 519.59-20.9Q521.59-25.6 526.49-25.6L526.49-25.6Q527.39-25.6 527.89-25.5L527.89-25.5 527.89-21.6Q526.84-21.95 525.74-21.95L525.74-21.95Q523.09-21.95 521.34-19.5 519.59-17.05 519.59-13.85L519.59-13.85ZM550.49-5L550.49-1.3Q547.54 0.25 543.29 0.25L543.29 0.25Q537.54 0.25 534.01-3.28 530.49-6.8 530.49-12.6L530.49-12.6Q530.49-18.65 533.63-22.15 536.79-25.65 541.74-25.65L541.74-25.65Q546.49-25.65 549.29-22.6 552.09-19.55 552.09-13.95L552.09-13.95Q552.09-12.35 551.84-11L551.84-11 534.54-11Q534.99-7.25 537.38-5.25 539.79-3.25 543.69-3.25L543.69-3.25Q547.94-3.25 550.49-5L550.49-5ZM541.74-22.2L541.74-22.2Q538.88-22.2 536.88-20.15 534.88-18.1 534.54-14.3L534.54-14.3 548.13-14.3 548.13-15.3Q548.13-18.45 546.44-20.33 544.74-22.2 541.74-22.2ZM573.33-6.75L573.33-6.75Q573.33-3.5 571.06-1.6 568.78 0.3 564.83 0.3L564.83 0.3Q560.23 0.3 557.38-1.25L557.38-1.25 557.38-5.1Q560.73-3.1 564.58-3.1L564.58-3.1Q566.88-3.1 568.08-4 569.28-4.9 569.28-6.45L569.28-6.45Q569.28-8.25 567.96-9.25 566.63-10.25 563.53-11.5L563.53-11.5Q560.68-12.6 558.96-14.25 557.23-15.9 557.23-18.7L557.23-18.7Q557.23-21.85 559.61-23.73 561.98-25.6 565.53-25.6L565.53-25.6Q569.48-25.6 571.88-24.5L571.88-24.5 571.88-20.75Q569.58-22.15 565.58-22.15L565.58-22.15Q563.58-22.15 562.41-21.23 561.23-20.3 561.23-18.85L561.23-18.85Q561.23-17.95 561.58-17.28 561.93-16.6 562.96-15.95 563.98-15.3 564.46-15.08 564.93-14.85 566.53-14.15L566.53-14.15Q569.73-12.85 571.53-11.2 573.33-9.55 573.33-6.75ZM597.18-5L597.18-1.3Q594.23 0.25 589.98 0.25L589.98 0.25Q584.23 0.25 580.7-3.28 577.18-6.8 577.18-12.6L577.18-12.6Q577.18-18.65 580.33-22.15 583.48-25.65 588.43-25.65L588.43-25.65Q593.18-25.65 595.98-22.6 598.78-19.55 598.78-13.95L598.78-13.95Q598.78-12.35 598.53-11L598.53-11 581.23-11Q581.68-7.25 584.08-5.25 586.48-3.25 590.38-3.25L590.38-3.25Q594.63-3.25 597.18-5L597.18-5ZM588.43-22.2L588.43-22.2Q585.58-22.2 583.58-20.15 581.58-18.1 581.23-14.3L581.23-14.3 594.83-14.3 594.83-15.3Q594.83-18.45 593.13-20.33 591.43-22.2 588.43-22.2ZM608.68-13.85L608.68 0 604.73 0 604.78-25.35 608.68-25.35 608.68-20.9Q610.68-25.6 615.58-25.6L615.58-25.6Q616.48-25.6 616.98-25.5L616.98-25.5 616.98-21.6Q615.93-21.95 614.83-21.95L614.83-21.95Q612.18-21.95 610.43-19.5 608.68-17.05 608.68-13.85L608.68-13.85ZM641.42-25.35L632.37 0 627.52 0 618.67-25.35 622.77-25.35 626.27-14.65 629.97-3.1Q630.42-5.25 633.72-14.65L633.72-14.65 637.32-25.35 641.42-25.35ZM650.47-25.35L650.47 0 646.52 0 646.52-25.35 650.47-25.35ZM650.32-35.15Q651.07-34.4 651.07-33.3 651.07-32.2 650.32-31.48 649.57-30.75 648.47-30.75 647.37-30.75 646.65-31.48 645.92-32.2 645.92-33.3 645.92-34.4 646.65-35.15 647.37-35.9 648.47-35.9 649.57-35.9 650.32-35.15ZM677.97-17.45L677.97 0 674.02 0 674.02-16.4Q674.02-19.2 672.59-20.68 671.17-22.15 668.87-22.15L668.87-22.15Q666.02-22.15 663.94-19.95 661.87-17.75 661.87-13.85L661.87-13.85 661.87 0 657.97 0 657.97-25.35 661.87-25.35 661.87-20.95Q664.12-25.7 669.87-25.7L669.87-25.7Q673.57-25.7 675.77-23.45 677.97-21.2 677.97-17.45L677.97-17.45ZM705.42-25.35L705.42-2.05Q705.42 3.75 702.22 6.68 699.02 9.6 693.97 9.6L693.97 9.6Q689.37 9.6 686.12 8.05L686.12 8.05 686.12 4.1Q689.32 5.95 693.62 5.95L693.62 5.95Q697.27 5.95 699.37 4 701.47 2.05 701.47-2.1L701.47-2.1 701.47-4.95Q698.97-0.65 694.02-0.65L694.02-0.65Q689.67-0.65 686.59-3.85 683.52-7.05 683.52-12.75L683.52-12.75Q683.52-18.4 686.37-22.05 689.22-25.7 693.82-25.7L693.82-25.7Q699.02-25.7 701.47-21.15L701.47-21.15 701.47-25.35 705.42-25.35ZM687.62-12.85L687.62-12.85Q687.62-8.6 689.72-6.38 691.82-4.15 694.47-4.15L694.47-4.15Q697.22-4.15 699.34-6.28 701.47-8.4 701.47-12.6L701.47-12.6Q701.47-17.45 699.42-19.8 697.37-22.15 694.67-22.15L694.67-22.15Q691.42-22.15 689.52-19.58 687.62-17 687.62-12.85ZM748.36-33.7L748.36 0 744.31 0 744.31-15.25 727.96-15.25 727.96 0 723.91 0 723.91-33.7 727.96-33.7 727.96-18.9 744.31-18.9 744.31-33.7 748.36-33.7ZM763.61-3.05L763.61-3.05Q766.31-3.05 767.91-4.58 769.51-6.1 769.51-8.45L769.51-8.45 769.51-11.7 765.11-11.7Q761.91-11.7 760.31-10.45 758.71-9.2 758.71-7.3 758.71-5.4 759.96-4.23 761.21-3.05 763.61-3.05ZM769.56 0L769.56-3Q767.61 0.25 762.46 0.25L762.46 0.25Q758.91 0.25 756.73-1.85 754.56-3.95 754.56-7.15L754.56-7.15Q754.56-10.8 757.33-12.83 760.11-14.85 764.91-14.85L764.91-14.85 769.51-14.85 769.51-16.15Q769.51-19.15 768.16-20.68 766.81-22.2 763.61-22.2L763.61-22.2Q759.56-22.2 756.41-20.05L756.41-20.05 756.41-24Q759.26-25.75 763.91-25.75L763.91-25.75Q773.46-25.75 773.46-16.05L773.46-16.05 773.46 0 769.56 0ZM784.36-13.85L784.36 0 780.41 0 780.46-25.35 784.36-25.35 784.36-20.9Q786.36-25.6 791.26-25.6L791.26-25.6Q792.16-25.6 792.66-25.5L792.66-25.5 792.66-21.6Q791.61-21.95 790.51-21.95L790.51-21.95Q787.86-21.95 786.11-19.5 784.36-17.05 784.36-13.85L784.36-13.85ZM817.1-25.35L808.05 0 803.2 0 794.35-25.35 798.45-25.35 801.95-14.65 805.65-3.1Q806.1-5.25 809.4-14.65L809.4-14.65 813-25.35 817.1-25.35ZM840.5-5L840.5-1.3Q837.55 0.25 833.3 0.25L833.3 0.25Q827.55 0.25 824.03-3.28 820.5-6.8 820.5-12.6L820.5-12.6Q820.5-18.65 823.65-22.15 826.8-25.65 831.75-25.65L831.75-25.65Q836.5-25.65 839.3-22.6 842.1-19.55 842.1-13.95L842.1-13.95Q842.1-12.35 841.85-11L841.85-11 824.55-11Q825-7.25 827.4-5.25 829.8-3.25 833.7-3.25L833.7-3.25Q837.95-3.25 840.5-5L840.5-5ZM831.75-22.2L831.75-22.2Q828.9-22.2 826.9-20.15 824.9-18.1 824.55-14.3L824.55-14.3 838.15-14.3 838.15-15.3Q838.15-18.45 836.45-20.33 834.75-22.2 831.75-22.2ZM863.35-6.75L863.35-6.75Q863.35-3.5 861.07-1.6 858.8 0.3 854.85 0.3L854.85 0.3Q850.25 0.3 847.4-1.25L847.4-1.25 847.4-5.1Q850.75-3.1 854.6-3.1L854.6-3.1Q856.9-3.1 858.1-4 859.3-4.9 859.3-6.45L859.3-6.45Q859.3-8.25 857.97-9.25 856.65-10.25 853.55-11.5L853.55-11.5Q850.7-12.6 848.97-14.25 847.25-15.9 847.25-18.7L847.25-18.7Q847.25-21.85 849.62-23.73 852-25.6 855.55-25.6L855.55-25.6Q859.5-25.6 861.9-24.5L861.9-24.5 861.9-20.75Q859.6-22.15 855.6-22.15L855.6-22.15Q853.6-22.15 852.42-21.23 851.25-20.3 851.25-18.85L851.25-18.85Q851.25-17.95 851.6-17.28 851.95-16.6 852.97-15.95 854-15.3 854.47-15.08 854.95-14.85 856.55-14.15L856.55-14.15Q859.75-12.85 861.55-11.2 863.35-9.55 863.35-6.75ZM881.4-4.4L881.4-0.65Q879.75 0.25 877.7 0.25L877.7 0.25Q870.2 0.25 870.2-7.4L870.2-7.4 870.2-22.15 866.15-22.15 866.15-25.35 870.2-25.35 870.2-31.65 874.15-31.65 874.15-25.35 881.15-25.35 881.15-22.15 874.15-22.15 874.15-7.3Q874.15-3.25 877.95-3.25L877.95-3.25Q879.9-3.25 881.4-4.4L881.4-4.4ZM902.39-6.75L902.39-6.75Q902.39-3.5 900.12-1.6 897.84 0.3 893.89 0.3L893.89 0.3Q889.29 0.3 886.44-1.25L886.44-1.25 886.44-5.1Q889.79-3.1 893.64-3.1L893.64-3.1Q895.94-3.1 897.14-4 898.34-4.9 898.34-6.45L898.34-6.45Q898.34-8.25 897.02-9.25 895.69-10.25 892.59-11.5L892.59-11.5Q889.74-12.6 888.02-14.25 886.29-15.9 886.29-18.7L886.29-18.7Q886.29-21.85 888.67-23.73 891.04-25.6 894.59-25.6L894.59-25.6Q898.54-25.6 900.94-24.5L900.94-24.5 900.94-20.75Q898.64-22.15 894.64-22.15L894.64-22.15Q892.64-22.15 891.47-21.23 890.29-20.3 890.29-18.85L890.29-18.85Q890.29-17.95 890.64-17.28 890.99-16.6 892.02-15.95 893.04-15.3 893.52-15.08 893.99-14.85 895.59-14.15L895.59-14.15Q898.79-12.85 900.59-11.2 902.39-9.55 902.39-6.75ZM910.34-4.65Q911.19-3.8 911.19-2.55 911.19-1.3 910.34-0.45 909.49 0.4 908.24 0.4 906.99 0.4 906.14-0.45 905.29-1.3 905.29-2.55 905.29-3.8 906.14-4.65 906.99-5.5 908.24-5.5 909.49-5.5 910.34-4.65Z" opacity="1" transform="matrix(1,0,0,1,0,0)" fill="#000000" class="slogan-text-1" data-fill-palette-color="quaternary" id="text-1"></path></svg></g></svg></g></svg></g></svg></g><g><svg viewBox="0 0 142.38719999999998 94.97674293660192" height="94.97674293660192" width="142.38719999999998"><g><svg xmlns="http://www.w3.org/2000/svg" xmlns:xlink="http://www.w3.org/1999/xlink" version="1.1" x="0" y="0" viewBox="10.752 24.096999999999994 77.668 51.807" enable-background="new 0 0 100 100" xml:space="preserve" height="94.97674293660192" width="142.38719999999998" class="icon-icon-0" data-fill-palette-color="quaternary" id="icon-0"><path d="M75.586 38.413l-1-0.806-2-1.612-1-0.806-2-1.612-1-0.807-2-1.612-1-0.806-2-1.612-1-0.806-2-1.612-0.278-0.225-2.481-2H41.347l-2.481 2-0.28 0.226-2 1.612-1 0.806-2 1.612-1 0.806-2 1.612-1 0.807-2 1.612-1 0.806-2 1.612-1 0.806L10.752 48.759l2.511 3.114 6.901-5.563v29.594h58.843V46.309l6.902 5.564 2.511-3.114L75.586 38.413zM51.586 28.096v6.257h-1v-6.257H51.586zM46.586 45.258v-0.082-0.75h5.999v0.75 0.082H46.586zM48.586 28.096v6.257h-1v-6.257H48.586zM64.988 71.865l-3.106-5.49 3.106-5.49V71.865zM61.021 64.852l-3.257-5.757h6.514L61.021 64.852zM43.119 73.631l-4.105-7.256 4.105-7.256V73.631zM56.053 59.118l4.106 7.257-4.106 7.257V59.118zM38.152 64.852l-3.257-5.757h6.514L38.152 64.852zM34.185 60.885l3.106 5.49-3.106 5.49V60.885zM34.471 74.404l3.681-6.506 3.681 6.506H34.471zM57.339 74.404l3.681-6.506 3.681 6.506H57.339zM77.507 74.404H66.988v-15.31h5.171v-3H27.012v3h5.173v15.31H21.664V54.481h1.922v-10.93l1-0.806v11.736h2V41.133l1-0.806v14.154h2V38.715l1-0.806v16.573h2V36.296l1-0.806v18.991h2V33.878l1-0.806v21.41h2V31.459l1-0.806v23.828h2v-25.44l1-0.806v26.247h2V28.096h1v26.386h2v-7.724h1v7.724h2v-7.724h1v7.724h2V28.096h1v26.386h2V28.233l1 0.806v25.442h2V30.652l1 0.806v23.023h2V33.071l1 0.806v20.604h2V35.489l1 0.806v18.186h2V37.908l1 0.806v15.768h2V40.327l1 0.806v13.349h2V42.745l1 0.806v10.93h1.921V74.404z" fill="#000000" data-fill-palette-color="quaternary"></path></svg></g></svg></g></svg></g></svg></g></svg></g><defs></defs></svg><rect width="384" height="360" fill="none" stroke="none" visibility="hidden"></rect></g></svg></g></svg>